<svg width="60" height="105" viewBox="0 0 60 105" fill="none" xmlns="http://www.w3.org/2000/svg">
<path d="M50 0H10C8.19444 0 6.52778 0.444336 5 1.33301C3.47222 2.22168 2.25694 3.41797 1.35417 4.92188C0.451389 6.42578 0 8.06641 0 9.84375V95.1562C0 97.8906 0.972222 100.215 2.91667 102.129C4.86111 104.043 7.22222 105 10 105H50C52.7778 105 55.1389 104.043 57.0833 102.129C59.0278 100.215 60 97.8906 60 95.1562V9.84375C60 8.06641 59.5486 6.42578 58.6458 4.92188C57.7431 3.41797 56.5278 2.22168 55 1.33301C53.4722 0.444336 51.8056 0 50 0ZM53.3333 95.1562C53.3333 96.0449 53.0035 96.814 52.3438 97.4634C51.684 98.1128 50.9028 98.4375 50 98.4375H10C9.09722 98.4375 8.31597 98.1128 7.65625 97.4634C6.99653 96.814 6.66667 96.0449 6.66667 95.1562V9.84375C6.66667 8.95508 6.99653 8.18604 7.65625 7.53662C8.31597 6.88721 9.09722 6.5625 10 6.5625H50C50.9028 6.5625 51.684 6.88721 52.3438 7.53662C53.0035 8.18604 53.3333 8.95508 53.3333 9.84375V95.1562ZM30.0521 82.0312C28.2118 82.0312 26.6319 82.6807 25.3125 83.9795C23.9931 85.2783 23.3333 86.8164 23.3333 88.5938C23.3333 89.7559 23.6285 90.8496 24.2188 91.875C24.809 92.9004 25.625 93.7036 26.6667 94.2847C27.7083 94.8657 28.8194 95.1562 30 95.1562C31.1806 95.1562 32.2917 94.8657 33.3333 94.2847C34.375 93.7036 35.191 92.9004 35.7812 91.875C36.3715 90.8496 36.6667 89.7559 36.6667 88.5938C36.6667 86.8164 36.0243 85.2783 34.7396 83.9795C33.4549 82.6807 31.8924 82.0312 30.0521 82.0312ZM36.6667 9.84375H23.3333C22.4306 9.84375 21.6493 10.1685 20.9896 10.8179C20.3299 11.4673 20 12.2363 20 13.125C20 14.0137 20.3299 14.7827 20.9896 15.4321C21.6493 16.0815 22.4306 16.4062 23.3333 16.4062H36.6667C37.5694 16.4062 38.3507 16.0815 39.0104 15.4321C39.6701 14.7827 40 14.0137 40 13.125C40 12.2363 39.6701 11.4673 39.0104 10.8179C38.3507 10.1685 37.5694 9.84375 36.6667 9.84375Z" fill="black"/>
</svg>
