<svg width="61" height="82" viewBox="0 0 61 82" fill="none" xmlns="http://www.w3.org/2000/svg">
<path d="M30.4768 19.2778C28.2585 19.2778 26.09 19.9356 24.2455 21.1681C22.401 22.4005 20.9634 24.1522 20.1145 26.2017C19.2656 28.2512 19.0435 30.5063 19.4763 32.682C19.909 34.8577 20.9773 36.8562 22.5458 38.4248C24.1144 39.9934 26.113 41.0616 28.2887 41.4944C30.4644 41.9272 32.7195 41.7051 34.769 40.8562C36.8185 40.0072 38.5702 38.5697 39.8026 36.7252C41.035 34.8807 41.6928 32.7122 41.6928 30.4939C41.6895 27.5202 40.5067 24.6694 38.404 22.5667C36.3013 20.464 33.4504 19.2812 30.4768 19.2778ZM30.4768 36.1019C29.3676 36.1019 28.2834 35.773 27.3611 35.1568C26.4389 34.5406 25.7201 33.6647 25.2957 32.64C24.8712 31.6152 24.7601 30.4877 24.9765 29.3998C25.1929 28.312 25.727 27.3127 26.5113 26.5284C27.2956 25.7441 28.2949 25.21 29.3827 24.9936C30.4706 24.7772 31.5982 24.8883 32.6229 25.3127C33.6476 25.7372 34.5235 26.456 35.1397 27.3782C35.7559 28.3005 36.0848 29.3847 36.0848 30.4939C36.0831 31.9807 35.4917 33.4061 34.4404 34.4575C33.389 35.5088 31.9636 36.1002 30.4768 36.1019Z" fill="black"/>
<path d="M52.0299 8.92467C46.701 3.59712 39.5876 0.43234 32.0625 0.0411341C24.5374 -0.350072 17.1341 2.06003 11.2815 6.80628C5.42891 11.5525 1.54186 18.2985 0.370567 25.7421C-0.800723 33.1858 0.826781 40.7995 4.93897 47.1137L26.128 79.6426C26.5995 80.3664 27.2443 80.9611 28.0037 81.3727C28.7632 81.7844 29.6134 82 30.4773 82C31.3412 82 32.1914 81.7844 32.9509 81.3727C33.7103 80.9611 34.3551 80.3664 34.8266 79.6426L56.0163 47.1137C59.832 41.2563 61.5182 34.2654 60.7924 27.3126C60.0667 20.3598 56.973 13.8678 52.0299 8.92467ZM51.3175 44.0526L30.4774 76.0447L9.63709 44.0526C3.25796 34.2598 4.62615 21.1545 12.8903 12.8901C15.1998 10.5805 17.9417 8.74836 20.9593 7.49841C23.9769 6.24845 27.2111 5.6051 30.4774 5.6051C33.7436 5.6051 36.9779 6.24845 39.9955 7.49841C43.0131 8.74836 45.7549 10.5805 48.0645 12.8901C56.3286 21.1545 57.6966 34.2598 51.3175 44.0526Z" fill="black"/>
</svg>
