<svg width="82" height="62" viewBox="0 0 82 62" fill="none" xmlns="http://www.w3.org/2000/svg">
<path d="M76.875 0H5.125C3.76577 0 2.4622 0.544343 1.50108 1.51328C0.539954 2.48222 0 3.79638 0 5.16667V56.8333C0 58.2036 0.539954 59.5178 1.50108 60.4867C2.4622 61.4557 3.76577 62 5.125 62H76.875C78.2342 62 79.5378 61.4557 80.4989 60.4867C81.4601 59.5178 82 58.2036 82 56.8333V5.16667C82 3.79638 81.4601 2.48222 80.4989 1.51328C79.5378 0.544343 78.2342 0 76.875 0ZM72.9287 56.8333H9.37875L27.3162 38.13L23.6263 34.5392L5.125 53.8367V9.09333L36.9769 41.0492C37.9371 42.0115 39.236 42.5516 40.59 42.5516C41.944 42.5516 43.2429 42.0115 44.2031 41.0492L76.875 8.2925V53.5008L58.015 34.4875L54.4019 38.13L72.9287 56.8333ZM8.48187 5.16667H72.7237L40.59 37.3808L8.48187 5.16667Z" fill="black"/>
</svg>
