<svg width="70" height="70" viewBox="0 0 70 70" fill="none" xmlns="http://www.w3.org/2000/svg">
<path d="M58.0701 15.6679C57.8158 15.4122 57.4631 15.2673 57.1035 15.2673C56.7426 15.2673 56.3912 15.4122 56.1369 15.6679C55.8812 15.9222 55.7363 16.2736 55.7363 16.6345C55.7363 16.9941 55.8812 17.3468 56.1369 17.6011C56.3912 17.8555 56.7426 18.0017 57.1035 18.0017C57.4631 18.0017 57.8158 17.8555 58.0701 17.6011C58.3244 17.3468 58.4707 16.9941 58.4707 16.6345C58.4707 16.2736 58.3244 15.9222 58.0701 15.6679Z" fill="#1F9509"/>
<path d="M58.4704 31.8675V22.1029C58.4704 21.3478 57.8583 20.7357 57.1032 20.7357C56.3481 20.7357 55.736 21.3478 55.736 22.1029V32.7593C55.736 33.3128 56.0697 33.8118 56.5813 34.023C61.2049 35.9324 64.6611 39.6634 66.268 44.1897H48.9561C48.201 44.1897 47.5889 44.8019 47.5889 45.5569C47.5889 46.3119 48.201 46.9242 48.9561 46.9242H66.9922C67.1712 47.9247 67.2658 48.9506 67.2658 49.9936C67.2658 59.5174 59.5178 67.2657 49.9944 67.2657C49.1127 67.2657 48.2348 67.1978 47.3692 67.0659C48.0766 65.5614 48.0103 63.8394 47.1662 62.3772L35.0343 41.3636C36.072 39.5687 37.4078 37.9864 39.0135 36.6622C40.3431 35.5657 41.8212 34.6779 43.407 34.023C43.9186 33.8118 44.2523 33.3128 44.2523 32.7593V8.20302H55.7363V10.9829C55.7363 11.738 56.3484 12.3501 57.1035 12.3501C57.8586 12.3501 58.4706 11.738 58.4706 10.9829V8.20111C60.6955 8.15845 62.4926 6.33647 62.4926 4.10158C62.4926 1.84003 60.6527 0 58.3912 0H42.1191C39.8576 0 38.0177 1.84003 38.0177 4.10158C38.0177 6.15886 39.5404 7.86695 41.5179 8.15872V31.8677C39.999 32.5791 38.5748 33.4798 37.2739 34.5524C35.8154 35.7551 34.5476 37.1408 33.4885 38.6859L32.9218 37.7043V16.0243C34.7725 15.6285 36.1649 13.9811 36.1649 12.0138C36.1649 9.75224 34.3249 7.91221 32.0634 7.91221H15.7916C13.5301 7.91221 11.6902 9.7521 11.6902 12.0138C11.6902 13.981 13.0825 15.6285 14.9333 16.0243V37.7046L0.68896 62.3772C-0.229653 63.9683 -0.229653 65.8679 0.68896 67.4591C1.60757 69.0503 3.25257 70 5.0898 70H42.7652C43.6226 70 44.4369 69.7908 45.1562 69.4085C46.7313 69.7997 48.3576 70 49.9942 70C61.0254 70 70 61.025 70 49.9935C70 42.1703 65.5043 35.1533 58.4704 31.8675ZM40.7519 4.10144C40.7519 3.34755 41.3652 2.7342 42.1191 2.7342H58.3911C59.1449 2.7342 59.7583 3.34755 59.7583 4.10144C59.7583 4.85534 59.1449 5.46868 58.3911 5.46868H57.1033H42.8851H42.1191C41.3652 5.46868 40.7519 4.85547 40.7519 4.10144ZM14.4244 12.0138C14.4244 11.2599 15.0377 10.6465 15.7916 10.6465H32.0636C32.8174 10.6465 33.4308 11.2599 33.4308 12.0138C33.4308 12.7677 32.8174 13.381 32.0636 13.381H15.7916C15.0376 13.3809 14.4244 12.7677 14.4244 12.0138ZM17.4843 38.7545C17.6043 38.5465 17.6675 38.311 17.6675 38.0709V16.1154H30.1875V38.0709C30.1875 38.311 30.2507 38.5465 30.3707 38.7545L35.5437 47.7148H12.3113L17.4843 38.7545ZM44.7981 66.0918C44.3737 66.8268 43.6138 67.2655 42.7652 67.2655H5.0898C4.24105 67.2655 3.48117 66.8268 3.05693 66.0918C2.63255 65.3567 2.63255 64.4792 3.05693 63.7443L10.7327 50.4492H37.1224L44.7982 63.7443C45.2225 64.4794 45.2225 65.3567 44.7981 66.0918Z" fill="black"/>
<path d="M43.8973 44.5907C43.643 44.3352 43.2902 44.1901 42.9307 44.1901C42.5711 44.1901 42.2184 44.3352 41.9641 44.5907C41.7098 44.845 41.5635 45.1965 41.5635 45.5573C41.5635 45.9169 41.7098 46.2683 41.9641 46.524C42.2184 46.7781 42.5711 46.9246 42.9307 46.9246C43.2902 46.9246 43.643 46.7783 43.8973 46.524C44.1516 46.2683 44.2979 45.9169 44.2979 45.5573C44.2979 45.1964 44.1516 44.845 43.8973 44.5907Z" fill="#1F9509"/>
<path d="M27.7645 24.7364C27.5102 24.482 27.1574 24.3358 26.7979 24.3358C26.4383 24.3358 26.0855 24.482 25.8313 24.7364C25.577 24.9907 25.4307 25.3434 25.4307 25.703C25.4307 26.0626 25.577 26.4153 25.8313 26.6696C26.0855 26.9239 26.4381 27.0702 26.7979 27.0702C27.1574 27.0702 27.5102 26.9239 27.7645 26.6696C28.0187 26.4153 28.165 26.0626 28.165 25.703C28.165 25.3434 28.0187 24.9907 27.7645 24.7364Z" fill="#1F9509"/>
<path d="M23.117 32.2559C22.8627 32.0016 22.51 31.8553 22.1504 31.8553C21.7908 31.8553 21.4381 32.0016 21.1838 32.2559C20.9295 32.5102 20.7832 32.8629 20.7832 33.2225C20.7832 33.5821 20.9295 33.9349 21.1838 34.1892C21.4381 34.4435 21.7907 34.5898 22.1504 34.5898C22.51 34.5898 22.8627 34.4435 23.117 34.1892C23.3713 33.9349 23.5176 33.5821 23.5176 33.2225C23.5176 32.8629 23.3713 32.5102 23.117 32.2559Z" fill="#1F9509"/>
<path d="M27.0818 40.7229C26.8275 40.4688 26.4748 40.3237 26.1152 40.3237C25.7557 40.3237 25.4029 40.4688 25.1486 40.7229C24.8943 40.9786 24.748 41.3314 24.748 41.6909C24.748 42.0505 24.8943 42.4033 25.1486 42.6576C25.4029 42.912 25.7555 43.0582 26.1152 43.0582C26.4748 43.0582 26.8275 42.912 27.0818 42.6576C27.3361 42.4019 27.4824 42.0505 27.4824 41.6909C27.4824 41.3314 27.3361 40.9786 27.0818 40.7229Z" fill="#1F9509"/>
<path d="M16.4178 54.0803C16.1635 53.8261 15.8107 53.6797 15.4512 53.6797C15.0916 53.6797 14.7389 53.826 14.4846 54.0803C14.2303 54.3346 14.084 54.6873 14.084 55.0469C14.084 55.4065 14.2303 55.7593 14.4846 56.0136C14.7389 56.2677 15.0916 56.4142 15.4512 56.4142C15.8107 56.4142 16.1635 56.2679 16.4178 56.0136C16.6721 55.7593 16.8184 55.4065 16.8184 55.0469C16.8184 54.6873 16.6721 54.3346 16.4178 54.0803Z" fill="#1F9509"/>
<path d="M32.3211 60.1466C32.0669 59.8923 31.7156 59.746 31.3545 59.746C30.9949 59.746 30.6422 59.8922 30.3879 60.1466C30.1336 60.401 29.9873 60.7537 29.9873 61.1132C29.9873 61.4728 30.1336 61.8256 30.3879 62.0797C30.6436 62.334 30.9949 62.4805 31.3545 62.4805C31.7154 62.4805 32.0668 62.3342 32.3211 62.0797C32.5768 61.8256 32.7217 61.4728 32.7217 61.1132C32.7217 60.7537 32.5768 60.4009 32.3211 60.1466Z" fill="#1F9509"/>
<path d="M60.3025 51.2599C60.0482 51.0056 59.6955 50.8593 59.3359 50.8593C58.9764 50.8593 58.6236 51.0055 58.3693 51.2599C58.115 51.5143 57.9688 51.867 57.9688 52.2266C57.9688 52.5862 58.115 52.9389 58.3693 53.1931C58.6236 53.4474 58.9764 53.5938 59.3359 53.5938C59.6955 53.5937 60.0482 53.4474 60.3025 53.1931C60.5568 52.9389 60.7031 52.5862 60.7031 52.2266C60.7031 51.867 60.5568 51.5143 60.3025 51.2599Z" fill="#1F9509"/>
<path d="M52.1482 55.6349C51.8939 55.3805 51.5426 55.2343 51.1816 55.2343C50.8221 55.2343 50.4693 55.3804 50.215 55.6349C49.9607 55.8893 49.8145 56.2419 49.8145 56.6015C49.8145 56.9611 49.9607 57.3138 50.215 57.568C50.4708 57.8224 50.8222 57.9687 51.1816 57.9687C51.5426 57.9687 51.8939 57.8224 52.1482 57.568C52.4039 57.3138 52.5488 56.9611 52.5488 56.6015C52.5488 56.2419 52.4039 55.8892 52.1482 55.6349Z" fill="#1F9509"/>
<path d="M54.9715 37.588C54.7172 37.3337 54.3645 37.1874 54.0049 37.1874C53.6453 37.1874 53.2927 37.3337 53.0383 37.588C52.784 37.8423 52.6377 38.195 52.6377 38.5546C52.6377 38.9142 52.784 39.2669 53.0383 39.5211C53.2926 39.7754 53.6453 39.9219 54.0049 39.9219C54.3645 39.9219 54.7172 39.7756 54.9715 39.5211C55.2258 39.2669 55.3721 38.9142 55.3721 38.5546C55.3721 38.195 55.2258 37.8423 54.9715 37.588Z" fill="#1F9509"/>
<path d="M49.9227 27.4243C49.6684 27.17 49.317 27.0251 48.9561 27.0251C48.5965 27.0251 48.2438 27.17 47.9895 27.4243C47.7352 27.68 47.5889 28.0327 47.5889 28.3923C47.5889 28.7519 47.7352 29.1033 47.9895 29.359C48.2438 29.6133 48.5965 29.7596 48.9561 29.7596C49.317 29.7596 49.6684 29.6133 49.9227 29.359C50.1783 29.1033 50.3232 28.7519 50.3232 28.3923C50.3232 28.0327 50.1783 27.68 49.9227 27.4243Z" fill="#1F9509"/>
</svg>
