<svg width="71" height="75" viewBox="0 0 71 75" fill="none" xmlns="http://www.w3.org/2000/svg">
<path d="M53.204 0H9.17313C7.14256 0 5.49081 1.6519 5.49081 3.68246V5.08432H3.68232C1.6519 5.08432 0 6.73622 0 8.76678V55.8345C0 56.4413 0.491894 56.9331 1.09863 56.9331C1.70537 56.9331 2.19726 56.4413 2.19726 55.8345V8.76678C2.19726 7.94779 2.86347 7.28158 3.68232 7.28158H47.7132C48.5321 7.28158 49.1983 7.94779 49.1983 8.76678V71.3175C49.1983 72.1365 48.5321 72.8027 47.7132 72.8027H3.68232C2.86347 72.8027 2.19726 72.1365 2.19726 71.3175V60.9616C2.19726 60.3547 1.70537 59.8629 1.09863 59.8629C0.491894 59.8629 0 60.3547 0 60.9616V71.3175C0 73.348 1.6519 75 3.68232 75H47.7132C49.7437 75 51.3956 73.3481 51.3956 71.3175V69.9157H53.2039C55.2343 69.9157 56.8862 68.2638 56.8862 66.2332V17.6497C56.8862 17.0428 56.3943 16.5511 55.7876 16.5511C55.1809 16.5511 54.689 17.0428 54.689 17.6497V66.2331C54.689 67.0521 54.0227 67.7183 53.2039 67.7183H51.8019V8.76678C51.8019 6.73636 50.15 5.08432 48.1196 5.08432C47.5146 5.08432 7.96654 5.08432 7.68792 5.08432V3.68246C7.68807 2.86347 8.35413 2.19726 9.17313 2.19726H53.204C54.0229 2.19726 54.6891 2.86347 54.6891 3.68246V12.5229C54.6891 13.1298 55.181 13.6216 55.7877 13.6216C56.3945 13.6216 56.8864 13.1298 56.8864 12.5229V3.68246C56.8864 1.6519 55.2345 0 53.204 0V0Z" fill="black"/>
<path d="M68.0197 21.7962H62.1584C60.7922 21.7962 59.6807 22.9078 59.6807 24.274V55.4609C59.6807 55.4822 59.6827 55.5028 59.6839 55.5238C59.6845 55.5352 59.6846 55.5466 59.6856 55.558C59.6934 55.6459 59.7117 55.7306 59.7388 55.8113C59.7417 55.8198 59.7451 55.8283 59.7482 55.8368C59.7605 55.8705 59.7744 55.9034 59.7898 55.9357C59.7923 55.9408 59.7939 55.9464 59.7965 55.9515L63.4015 63.174C63.7528 63.8779 64.3837 64.2982 65.0893 64.2982C65.7949 64.2982 66.4258 63.8779 66.7769 63.1742L70.3819 55.9515C70.3851 55.9452 70.387 55.9385 70.3901 55.9322C70.4043 55.9024 70.4171 55.872 70.4286 55.8408C70.4326 55.8301 70.4367 55.8197 70.4402 55.809C70.4528 55.7713 70.4638 55.7328 70.4723 55.6934C70.4729 55.6906 70.4739 55.688 70.4745 55.6852C70.483 55.6445 70.4887 55.6027 70.4925 55.5604C70.4938 55.546 70.494 55.5317 70.4947 55.5173C70.4957 55.4986 70.4975 55.48 70.4975 55.4609C70.4975 54.3213 70.4975 25.8306 70.4975 24.274C70.4975 22.9078 69.386 21.7962 68.0197 21.7962ZM65.0891 61.6355L62.5557 56.5597H67.6227L65.0891 61.6355ZM68.3002 54.3623H61.8781V30.8689H68.3002V54.3623ZM68.3002 28.6716H61.8781V24.274C61.8781 24.1193 62.0039 23.9935 62.1586 23.9935H68.0199C68.1745 23.9935 68.3004 24.1193 68.3004 24.274V28.6716H68.3002Z" fill="black"/>
<path d="M6.27637 66.8345C6.27637 68.0865 7.29487 69.105 8.54687 69.105H14.6015C15.8535 69.105 16.872 68.0865 16.872 66.8345V61.049L19.3785 58.3826C19.7941 57.9405 19.7725 57.2451 19.3304 56.8295C18.8884 56.414 18.1931 56.4355 17.7774 56.8776L15.875 58.9014C15.5116 58.6541 15.0732 58.5094 14.6015 58.5094H8.54687C7.29487 58.5094 6.27637 59.5279 6.27637 60.7799V66.8345ZM14.6747 63.3865V66.8345C14.6747 66.8748 14.6419 66.9078 14.6015 66.9078H11.3456C11.3888 66.8739 11.4306 66.8376 11.4688 66.797L14.6747 63.3865ZM8.47363 60.7799C8.47363 60.7396 8.50644 60.7067 8.54687 60.7067H14.1782L10.8222 64.2768L8.85332 61.2763C8.75356 61.1243 8.62202 61.0058 8.47378 60.9224V60.7799H8.47363ZM8.47363 64.7031C9.86479 66.823 9.7977 66.7568 9.98989 66.9078H8.54687C8.50644 66.9078 8.47363 66.8748 8.47363 66.8345V64.7031Z" fill="#1F9509"/>
<path d="M43.9833 62.7085H20.6436C20.0368 62.7085 19.5449 63.2002 19.5449 63.8071C19.5449 64.414 20.0368 64.9058 20.6436 64.9058H43.9833C44.59 64.9058 45.0819 64.414 45.0819 63.8071C45.0819 63.2002 44.59 62.7085 43.9833 62.7085Z" fill="black"/>
<path d="M8.83984 35.5826H28.3162C29.7296 35.5826 30.8797 34.4325 30.8797 33.0191V13.5426C30.8797 12.1292 29.7296 10.9791 28.3162 10.9791H8.83984C7.42641 10.9791 6.27637 12.1292 6.27637 13.5426V33.0191C6.27637 34.4327 7.42641 35.5826 8.83984 35.5826ZM8.47363 13.5426C8.47363 13.3406 8.63798 13.1764 8.83984 13.1764H28.3162C28.5181 13.1764 28.6824 13.3406 28.6824 13.5426V33.0191C28.6824 33.2211 28.5181 33.3853 28.3162 33.3853H8.83984C8.63798 33.3853 8.47363 33.2211 8.47363 33.0191V13.5426Z" fill="black"/>
<path d="M14.3013 31.6245C14.9077 31.6245 15.4014 31.1323 15.4014 30.5273V28.1543C15.4043 26.4098 16.8221 24.9862 18.5648 24.9758C18.5694 24.9758 18.5738 24.9761 18.5783 24.9761C18.583 24.9761 18.5875 24.9758 18.5921 24.9758C20.3349 24.9861 21.7529 26.4096 21.7558 28.1543V29.4285H19.4282C18.8232 29.4285 18.3296 29.9207 18.3296 30.5271C18.3296 31.1321 18.8232 31.6258 19.4282 31.6258C19.4297 31.6258 19.4311 31.6258 19.4311 31.6243H22.8545C23.143 31.6243 23.4272 31.5071 23.6308 31.3037C23.8359 31.0986 23.9531 30.8159 23.9531 30.5271V28.1543C23.9531 26.7171 23.3935 25.368 22.3784 24.353C22.1869 24.1615 21.9836 23.9863 21.7701 23.8281C22.8858 22.9066 23.5982 21.5132 23.5982 19.9566C23.5982 17.1886 21.3463 14.9366 18.5783 14.9366C15.8103 14.9366 13.5584 17.1885 13.5584 19.9566C13.5584 21.5131 14.2707 22.9065 15.3863 23.828C15.1726 23.9863 14.9689 24.1615 14.7773 24.3531C13.7622 25.3683 13.2041 26.7174 13.2041 28.1544V30.5273C13.2041 30.816 13.3213 31.0986 13.5249 31.3038C13.73 31.5073 14.0127 31.6245 14.3013 31.6245ZM18.5783 17.1338C20.1347 17.1338 21.4009 18.4002 21.4009 19.9566C21.4009 21.5097 20.1398 22.7733 18.5878 22.7786C18.5848 22.7786 18.5817 22.7784 18.5786 22.7784C18.5754 22.7784 18.5722 22.7786 18.5689 22.7787C17.0169 22.7736 15.7557 21.5099 15.7557 19.9567C15.7557 18.4 17.0219 17.1338 18.5783 17.1338Z" fill="black"/>
<path d="M34.2725 18.5401H43.9826C44.5893 18.5401 45.0812 18.0483 45.0812 17.4414C45.0812 16.8346 44.5893 16.3428 43.9826 16.3428H34.2725C33.6657 16.3428 33.1738 16.8346 33.1738 17.4414C33.1738 18.0483 33.6657 18.5401 34.2725 18.5401Z" fill="black"/>
<path d="M34.2725 24.7687H43.9826C44.5893 24.7687 45.0812 24.277 45.0812 23.6701C45.0812 23.0632 44.5893 22.5714 43.9826 22.5714H34.2725C33.6657 22.5714 33.1738 23.0632 33.1738 23.6701C33.1738 24.277 33.6657 24.7687 34.2725 24.7687Z" fill="black"/>
<path d="M34.2725 31.4122H43.9826C44.5893 31.4122 45.0812 30.9204 45.0812 30.3136C45.0812 29.7067 44.5893 29.2149 43.9826 29.2149H34.2725C33.6657 29.2149 33.1738 29.7067 33.1738 30.3136C33.1738 30.9204 33.6657 31.4122 34.2725 31.4122Z" fill="black"/>
<path d="M7.375 42.0211H43.9824C44.5891 42.0211 45.081 41.5294 45.081 40.9225C45.081 40.3156 44.5891 39.8239 43.9824 39.8239H7.375C6.76826 39.8239 6.27637 40.3156 6.27637 40.9225C6.27637 41.5294 6.76826 42.0211 7.375 42.0211Z" fill="black"/>
<path d="M7.375 48.2497H43.9824C44.5891 48.2497 45.081 47.7579 45.081 47.1511C45.081 46.5442 44.5891 46.0524 43.9824 46.0524H7.375C6.76826 46.0524 6.27637 46.5442 6.27637 47.1511C6.27637 47.7579 6.76826 48.2497 7.375 48.2497Z" fill="black"/>
<path d="M7.375 54.4782H43.9824C44.5891 54.4782 45.081 53.9864 45.081 53.3795C45.081 52.7727 44.5891 52.2809 43.9824 52.2809H7.375C6.76826 52.2809 6.27637 52.7727 6.27637 53.3795C6.27637 53.9864 6.76826 54.4782 7.375 54.4782Z" fill="black"/>
</svg>
