<svg width="70" height="70" viewBox="0 0 70 70" fill="none" xmlns="http://www.w3.org/2000/svg">
<path d="M70 24.8291V18.8066L59.2742 4.50213H43.4418L37.6905 0.780046C36.085 -0.260015 33.9116 -0.260015 32.3084 0.780046L26.5582 4.50213H10.7258L0 18.8066V24.8291H2.25806V60.9658H0V70H70V60.9658H67.7419V24.8291H70ZM54.1936 22.5705V20.312H67.7419V22.5705H54.1936ZM51.9355 67.7414H49.6774V49.6731H51.9355V67.7414ZM36.129 56.4487H40.6452V67.7414H36.129V56.4487ZM33.871 67.7414H29.3548V56.4487H33.871V67.7414ZM27.0968 54.1902V67.7414H22.5806V49.6731H47.4194V67.7414H42.9032V54.1902H27.0968ZM2.25806 22.5705V20.312H15.8065V22.5705H2.25806ZM39.9519 36.1218H45.1613V39.4927L39.9519 36.1218ZM36.129 33.8632V29.3461H44.5685C44.9456 30.4077 45.1613 31.5448 45.1613 32.734V33.8632H36.129ZM36.129 27.0876V22.6371C39.174 22.9759 41.816 24.6619 43.4429 27.0876H36.129ZM33.871 27.0876H26.5571C28.184 24.6619 30.8271 22.9759 33.871 22.6371V27.0876ZM24.8387 32.734C24.8387 31.5448 25.0544 30.4077 25.4315 29.3461H33.871V33.8632H24.8387V32.734ZM24.8387 36.1218H30.0481L24.8387 39.4938V36.1218ZM33.5368 36.5543C34.4073 35.9885 35.5905 35.9885 36.4644 36.5543L53.0645 47.2982V47.4145H49.9969L35 38.1838L20.0031 47.4145H16.9355V47.2982L33.5368 36.5543ZM45.6885 47.4145H24.3115L35 40.8354L45.6885 47.4145ZM18.0645 49.6731H20.3226V67.7414H18.0645V49.6731ZM47.4194 40.954V32.734C47.4194 25.8849 41.8476 20.312 35 20.312C28.1524 20.312 22.5806 25.8849 22.5806 32.734V40.9551L18.0645 43.8776V15.7949H51.9355V43.8776L47.4194 40.954ZM24.3115 13.5363L35 6.95717L45.6885 13.5363H24.3115ZM58.1452 6.76068L66.6129 18.0534H54.1936V15.7949H56.4516V12.922L46.9316 6.76068H58.1452ZM33.5368 2.6761C34.4073 2.11033 35.5905 2.11033 36.4644 2.6761L53.244 13.5363H49.9969L35 4.30564L20.0031 13.5363H16.756L33.5368 2.6761ZM11.8548 6.76068H23.0684L13.5484 12.922V15.7949H15.8065V18.0534H3.3871L11.8548 6.76068ZM15.8065 24.8291V45.156H4.51613V24.8291H15.8065ZM4.51613 47.4145H13.5484V49.6731H15.8065V60.9658H4.51613V47.4145ZM2.25806 63.2244H15.8065V67.7414H2.25806V63.2244ZM67.7419 67.7414H54.1936V63.2244H67.7419V67.7414ZM54.1936 60.9658V49.6731H56.4516V47.4145H65.4839V60.9658H54.1936ZM65.4839 45.156H54.1936V24.8291H65.4839V45.156Z" fill="black"/>
<path d="M63.2263 27.0876H56.4521V33.8633H63.2263V27.0876ZM60.9683 31.6047H58.7102V29.3462H60.9683V31.6047Z" fill="#1F9509"/>
<path d="M63.2263 42.8974V36.1218H56.4521V42.8974H63.2263ZM58.7102 38.3803H60.9683V40.6389H58.7102V38.3803Z" fill="#1F9509"/>
<path d="M13.5486 27.0876H6.77441V33.8633H13.5486V27.0876ZM11.2905 31.6047H9.03248V29.3462H11.2905V31.6047Z" fill="#1F9509"/>
<path d="M13.5486 42.8974V36.1218H6.77441V42.8974H13.5486ZM9.03248 38.3803H11.2905V40.6389H9.03248V38.3803Z" fill="#1F9509"/>
</svg>
