<svg width="32" height="28" viewBox="0 0 32 28" fill="none" xmlns="http://www.w3.org/2000/svg">
<path d="M11.3031 27.6737L11.8051 26.574L15.8848 25.2755C16.1411 25.1939 16.3493 24.9944 16.4416 24.7418L16.9552 23.3385C18.5367 22.8328 19.7412 21.4784 20.0323 19.8133L20.3348 19.8133C20.8431 19.8133 21.3491 19.6876 21.7981 19.4498L22.1442 19.2667C22.6282 19.2507 23.0877 19.1377 23.5044 18.9462L25.4913 20.7308C25.5568 20.7896 25.5753 20.8856 25.5361 20.9646L25.1965 21.6498C24.9938 22.0584 25.06 22.5418 25.3653 22.8809L25.5063 23.0377C25.6743 23.2243 25.9618 23.2395 26.1483 23.0716C26.3351 22.9036 26.3502 22.616 26.1822 22.4296L26.0412 22.2728C25.9868 22.2124 25.975 22.1263 26.0111 22.0536L26.3508 21.3685C26.5704 20.9253 26.4669 20.385 26.0989 20.0543L24.3033 18.4416C24.6198 18.1768 24.8892 17.858 25.0982 17.4996L25.6357 17.4996C25.8954 17.4996 26.1483 17.4706 26.3922 17.4171C26.5944 17.6193 26.8738 17.7443 27.1824 17.7443C27.7998 17.7443 28.3004 17.2437 28.3004 16.6263C28.3004 16.523 28.2852 16.4234 28.259 16.3285C28.273 16.3131 28.2863 16.2971 28.3 16.2813L30.4088 17.9933C30.5934 18.1431 30.6386 18.3687 30.5217 18.5551L29.7531 19.7789C29.5181 20.1531 29.5301 20.6109 29.7846 20.9739L30.202 21.5692C30.3461 21.7748 30.6296 21.8245 30.8351 21.6804C31.0407 21.5363 31.0906 21.2526 30.9464 21.0472L30.5291 20.4521C30.4864 20.3913 30.4844 20.3242 30.523 20.2625L31.2917 19.0385C31.6531 18.4631 31.5227 17.7266 30.9819 17.2874L28.8056 15.5207C29.0357 15.0523 29.1655 14.526 29.1655 13.9698C29.1655 13.4136 29.0357 12.8874 28.8056 12.4189L30.9819 10.6522C31.5228 10.2131 31.6531 9.47667 31.2917 8.90109L30.5229 7.67701C30.4843 7.61543 30.4865 7.54815 30.529 7.48766L30.9464 6.89244C31.0905 6.68678 31.0407 6.40336 30.8351 6.25928C30.6295 6.11514 30.3461 6.16491 30.202 6.3705L29.7845 6.96578C29.5302 7.32879 29.5181 7.78666 29.753 8.16064L30.5217 9.38466C30.6387 9.5708 30.5934 9.79664 30.4088 9.94636L28.3 11.6584C28.2863 11.6427 28.273 11.6267 28.259 11.6111C28.2853 11.5162 28.3004 11.4166 28.3004 11.3134C28.3004 10.6959 27.7998 10.1954 27.1824 10.1954C26.8738 10.1954 26.5944 10.3204 26.3922 10.5225C26.1483 10.469 25.8954 10.44 25.6357 10.44L25.063 10.44C24.8514 10.093 24.5818 9.78525 24.2681 9.52952L26.0987 7.88522C26.4669 7.55476 26.5705 7.01427 26.3507 6.57107L26.011 5.8859C25.9748 5.81311 25.9867 5.72716 26.0411 5.66673L26.1821 5.50998C26.35 5.32354 26.3349 5.03611 26.1483 4.86797C25.9617 4.70001 25.6743 4.71517 25.5062 4.90185L25.3652 5.0586C25.06 5.39785 24.9938 5.88112 25.1964 6.28977L25.5361 6.97499C25.5752 7.05367 25.5569 7.14998 25.4912 7.20878L23.4595 9.03365C23.0547 8.85448 22.6107 8.74895 22.144 8.73349L21.798 8.55038C21.349 8.3126 20.8429 8.18689 20.3346 8.18689L20.0322 8.18689C19.7412 6.52179 18.5366 5.16734 16.9551 4.66165L16.4415 3.2584C16.3492 3.00576 16.1409 2.80629 15.8847 2.72476L11.8052 1.42626L11.3032 0.326557C11.1989 0.0981679 10.9292 -0.00244948 10.7008 0.101865C10.5336 0.178177 10.4349 0.343104 10.4349 0.515669C10.4349 0.578767 10.4481 0.643016 10.4761 0.704175L10.9842 1.81715C11.0867 2.0416 11.2803 2.21325 11.5154 2.28805L15.5935 3.58613L15.9137 4.46114C15.8041 4.45314 15.6937 4.44768 15.582 4.44768L9.95755 4.44768C9.09684 4.44768 8.2656 4.57558 7.48115 4.81239L7.1005 4.11777C6.96545 3.87144 6.72919 3.70275 6.45218 3.65517L2.24008 2.93073L1.21748 2.11263C1.02146 1.95577 0.735367 1.98759 0.578501 2.18361C0.511463 2.2675 0.478851 2.36769 0.478851 2.46734C0.478851 2.60069 0.537283 2.73282 0.649416 2.82259L1.67202 3.64068C1.79275 3.73724 1.93707 3.8021 2.08927 3.82822L6.29817 4.55127C6.30035 4.55163 6.30217 4.55291 6.3032 4.55485L6.61566 5.12509C3.5381 6.43087 1.37392 9.48309 1.37392 13.0313C1.37392 13.2775 1.56964 13.4774 1.81397 13.4852L1.81397 14.515C1.5697 14.5228 1.37392 14.7227 1.37392 14.9689C1.37392 18.5171 3.53804 21.5694 6.61566 22.8752L6.3032 23.4454C6.30211 23.4473 6.30029 23.4486 6.29817 23.449L2.08933 24.1721C1.93701 24.1982 1.79269 24.263 1.67195 24.3596L0.649354 25.1777C0.537099 25.2675 0.478789 25.3996 0.478789 25.5329C0.478789 25.6325 0.51134 25.7328 0.578439 25.8167C0.735305 26.0127 1.0214 26.0445 1.21742 25.8876L2.24317 25.0681L6.45218 24.3451C6.72912 24.2975 6.96545 24.1288 7.1005 23.8824L7.48109 23.1878C8.26554 23.4246 9.09684 23.5525 9.95748 23.5525L11.883 23.5525C12.1342 23.5525 12.3376 23.3491 12.3376 23.0979C12.3376 22.8468 12.1342 22.6433 11.883 22.6433L9.95748 22.6433C8.52193 22.6433 7.17742 22.2467 6.02705 21.5579C6.51861 21.0565 6.80719 20.3741 6.80719 19.6585C6.80719 18.1647 5.59185 16.9494 4.09804 16.9494C3.58932 16.9494 3.0923 17.0958 2.66546 17.3617C2.46295 16.7461 2.33591 16.0964 2.29645 15.4236L15.582 15.4236C17.5725 15.4236 19.1919 17.043 19.1919 19.0335C19.1919 21.024 17.5725 22.6434 15.582 22.6434L13.8204 22.6434C13.5693 22.6434 13.3658 22.8469 13.3658 23.098C13.3658 23.3491 13.5693 23.5526 13.8204 23.5526L15.582 23.5526C15.6937 23.5526 15.8041 23.5471 15.9137 23.5391L15.5935 24.4141L11.5154 25.7122C11.2803 25.787 11.0868 25.9586 10.9843 26.1831L10.4761 27.2961C10.4481 27.3573 10.4349 27.4215 10.4349 27.4846C10.4349 27.6572 10.5336 27.8221 10.7008 27.8984C10.9292 28.0026 11.1989 27.902 11.3031 27.6737ZM4.0981 17.8585C5.09064 17.8585 5.89806 18.6659 5.89806 19.6585C5.89806 20.1896 5.65828 20.693 5.25872 21.0323C4.30443 20.291 3.52901 19.3301 3.00931 18.2258C3.3205 17.9874 3.69794 17.8585 4.0981 17.8585ZM25.6357 11.3492C25.783 11.3492 25.9273 11.3621 26.068 11.3855C26.1053 11.9692 26.5893 12.4314 27.1824 12.4314C27.357 12.4314 27.5216 12.3902 27.6689 12.3188C28.0357 12.7698 28.2563 13.3444 28.2563 13.9698C28.2563 14.5952 28.0358 15.1698 27.6689 15.6209C27.5216 15.5495 27.357 15.5083 27.1824 15.5083C26.5893 15.5083 26.1053 15.9705 26.068 16.5541C25.9273 16.5776 25.783 16.5904 25.6357 16.5904L25.4714 16.5904C25.5427 16.31 25.5809 16.0165 25.5809 15.7143L25.5809 12.2861C25.5809 11.9619 25.5365 11.6479 25.4548 11.3493L25.6357 11.3493L25.6357 11.3492ZM5.25872 6.96796C5.6584 7.30721 5.89812 7.81072 5.89812 8.34175C5.89812 9.33429 5.09064 10.1417 4.0981 10.1417C3.69788 10.1417 3.32044 10.0128 3.00926 9.77458C3.52895 8.67027 4.30443 7.70926 5.25872 6.96796ZM15.582 14.5143L2.72322 14.5143L2.72322 13.4859L7.16487 13.4859C7.41599 13.4859 7.61947 13.2824 7.61947 13.0313C7.61947 12.7802 7.41599 12.5767 7.16487 12.5767L2.29651 12.5767C2.33603 11.9038 2.46307 11.254 2.66564 10.6383C3.09248 10.9042 3.58938 11.0509 4.09817 11.0509C5.59203 11.0509 6.80737 9.83556 6.80737 8.34175C6.80737 7.62628 6.5191 6.9436 6.02753 6.44221C7.17784 5.75352 8.52217 5.35694 9.95755 5.35694L15.582 5.35694C17.5725 5.35694 19.1919 6.97633 19.1919 8.96685C19.1919 10.9574 17.5725 12.5768 15.582 12.5768L9.10224 12.5768C8.85112 12.5768 8.64764 12.7802 8.64764 13.0314C8.64764 13.2825 8.85112 13.486 9.10224 13.486L15.582 13.486C18.0304 13.486 20.0289 11.5283 20.0978 9.0962L20.3348 9.0962C20.6953 9.0962 21.0542 9.18536 21.3727 9.35405L21.4121 9.3749L20.7256 10.68C20.6087 10.9022 20.6941 11.177 20.9163 11.294C21.1385 11.4109 21.4133 11.3255 21.5302 11.1033L22.2929 9.65335C23.6269 9.78785 24.6717 10.9173 24.6717 12.2861L24.6717 15.7143C24.6717 17.0827 23.6277 18.2117 22.2945 18.347L20.6904 15.2588C20.2953 14.4982 20.2768 13.58 20.6409 12.8027C20.7473 12.5754 20.6494 12.3047 20.4221 12.1982C20.1947 12.0917 19.9241 12.1896 19.8176 12.417C19.3342 13.4488 19.3588 14.668 19.8836 15.6778L21.4142 18.6244L21.3726 18.6464C21.0541 18.815 20.6952 18.9041 20.3347 18.9041L20.0977 18.9041C20.0289 16.472 18.0304 14.5143 15.582 14.5143Z" fill="white"/>
<path d="M13.4482 9.00342C13.4482 10.3125 14.5132 11.3774 15.8223 11.3774C17.1313 11.3774 18.1963 10.3125 18.1963 9.00342C18.1963 7.69436 17.1313 6.62939 15.8223 6.62939C14.5132 6.62939 13.4482 7.69442 13.4482 9.00342ZM17.2871 9.00342C17.2871 9.81114 16.63 10.4682 15.8223 10.4682C15.0145 10.4682 14.3574 9.81114 14.3574 9.00342C14.3574 8.19569 15.0145 7.53859 15.8223 7.53859C16.63 7.53859 17.2871 8.19569 17.2871 9.00342Z" fill="white"/>
<path d="M12.918 10.1783C12.918 9.304 12.2067 8.59277 11.3325 8.59277C10.4582 8.59277 9.74695 9.304 9.74695 10.1783C9.74695 11.0526 10.4582 11.7638 11.3325 11.7638C12.2067 11.7638 12.918 11.0526 12.918 10.1783ZM10.6561 10.1783C10.6561 9.80539 10.9596 9.50197 11.3325 9.50197C11.7054 9.50197 12.0088 9.80539 12.0088 10.1783C12.0088 10.5512 11.7054 10.8546 11.3325 10.8546C10.9596 10.8546 10.6561 10.5512 10.6561 10.1783Z" fill="white"/>
<path d="M10.0596 7.5128C10.0596 6.82121 9.4969 6.25854 8.80531 6.25854C8.11371 6.25854 7.55104 6.82121 7.55104 7.5128C7.55104 8.2044 8.11371 8.76706 8.80531 8.76706C9.4969 8.76706 10.0596 8.20446 10.0596 7.5128ZM8.46018 7.5128C8.46018 7.32248 8.61498 7.16774 8.80525 7.16774C8.99551 7.16774 9.15032 7.32254 9.15032 7.5128C9.15032 7.70307 8.99551 7.85787 8.80525 7.85787C8.61498 7.85787 8.46018 7.70313 8.46018 7.5128Z" fill="white"/>
<path d="M13.4482 18.9968C13.4482 20.3059 14.5132 21.3709 15.8223 21.3709C17.1313 21.3709 18.1963 20.3059 18.1963 18.9968C18.1963 17.6878 17.1313 16.6228 15.8223 16.6228C14.5132 16.6228 13.4482 17.6878 13.4482 18.9968ZM17.2871 18.9968C17.2871 19.8046 16.63 20.4617 15.8223 20.4617C15.0145 20.4617 14.3574 19.8046 14.3574 18.9968C14.3574 18.1891 15.0145 17.532 15.8223 17.532C16.63 17.532 17.2871 18.1891 17.2871 18.9968Z" fill="white"/>
<path d="M9.74695 17.822C9.74695 18.6962 10.4582 19.4075 11.3325 19.4075C12.2067 19.4075 12.918 18.6962 12.918 17.822C12.918 16.9477 12.2067 16.2365 11.3325 16.2365C10.4582 16.2365 9.74695 16.9477 9.74695 17.822ZM12.0088 17.822C12.0088 18.1948 11.7054 18.4983 11.3325 18.4983C10.9596 18.4983 10.6561 18.1948 10.6561 17.822C10.6561 17.4491 10.9596 17.1456 11.3325 17.1456C11.7054 17.1456 12.0088 17.449 12.0088 17.822Z" fill="white"/>
<path d="M7.55105 20.4874C7.55105 21.179 8.11371 21.7417 8.80531 21.7417C9.4969 21.7417 10.0596 21.179 10.0596 20.4874C10.0596 19.7958 9.4969 19.2332 8.80531 19.2332C8.11371 19.2332 7.55105 19.7958 7.55105 20.4874ZM9.15044 20.4874C9.15044 20.6777 8.99563 20.8325 8.80537 20.8325C8.6151 20.8325 8.4603 20.6777 8.4603 20.4874C8.4603 20.2972 8.6151 20.1423 8.80537 20.1423C8.99563 20.1423 9.15044 20.2971 9.15044 20.4874Z" fill="white"/>
</svg>
